<?xml version="1.0" encoding="utf-8"?>
<svg id="master-artboard" viewBox="0 0 284.16949462890625 716.9948120117188" version="1.1" xmlns="http://www.w3.org/2000/svg" x="0px" y="0px" style="enable-background:new 0 0 2400 2400;" width="284.16949462890625px" height="716.9948120117188px"><rect id="ee-background" x="0" y="0" width="284.16949462890625" height="716.9948120117188" style="fill: white; fill-opacity: 0; pointer-events: none;"/>

<path class="st0" d="M1443.8,1495.2c7.3,0,13.2-5.9,13.2-13.2s-5.9-13.2-13.2-13.2h-115.1c-7.3,0-13.2,5.9-13.2,13.2&#10;&#9;&#9;&#9;s5.9,13.2,13.2,13.2H1443.8z" style="fill: rgb(65, 64, 66);" transform="matrix(1, 0, 0, 1, -1245.45751953125, -1169.3817176818848)"/><path d="M1514.5,1857.3H1258c-3.1,0-5.6,2.5-5.6,5.6v12.1c0,3.1,2.5,5.6,5.6,5.6h256.5c3.1,0,5.6-2.5,5.6-5.6V1863&#10;&#9;&#9;&#9;C1520.2,1859.9,1517.6,1857.3,1514.5,1857.3z" transform="matrix(1, 0, 0, 1, -1245.45751953125, -1169.3817176818848)"/><path d="M1509.5,1775.1H1263c-3.1,0-5.6,2.5-5.6,5.6v52.1c0,3.1,2.5,5.6,5.6,5.6h246.5c3.1,0,5.6-2.5,5.6-5.6v-52.1&#10;&#9;&#9;&#9;C1515.2,1777.6,1512.6,1775.1,1509.5,1775.1z" transform="matrix(1, 0, 0, 1, -1245.45751953125, -1169.3817176818848)"/><path d="M 1336.9000244140625 1495.199951171875 L 1312.699951171875 1737.0999755859375 L 1459.800048828125 1737.0999755859375 L 1435.5999755859375 1495.199951171875 Z" transform="matrix(1, 0, 0, 1, -1245.45751953125, -1169.3817176818848)"/><path class="st0" d="M1469.5,1737.1H1303c-21.2,0-38.4,16.9-39,38h244.5C1508,1754,1490.7,1737.1,1469.5,1737.1z" style="fill: rgb(65, 64, 66);" transform="matrix(1, 0, 0, 1, -1245.45751953125, -1169.3817176818848)"/><path d="M 1264 1838.5 H 1508.5 V 1857.4 H 1264 V 1838.5 Z" class="st0" style="fill: rgb(65, 64, 66);" transform="matrix(1, 0, 0, 1, -1245.45751953125, -1169.3817176818848)"/><path d="M1333.5,1451.9c-4.6,0-8.4,3.8-8.4,8.4c0,4.6,3.8,8.4,8.4,8.4h105.6c4.6,0,8.4-3.8,8.4-8.4c0-4.6-3.8-8.4-8.4-8.4H1333.5z&#10;&#9;&#9;&#9;" transform="matrix(1, 0, 0, 1, -1245.45751953125, -1169.3817176818848)"/><path d="M 1343.5 1431.599976 H 1429.099998 V 1451.899975 H 1343.5 V 1431.599976 Z" class="st0" style="fill: rgb(65, 64, 66);" transform="matrix(1, 0, 0, 1, -1245.45751953125, -1169.3817176818848)"/><path d="M1429.1,1431.6h-85.6l-30-132c0,0,34.7-14,72.8-14s72.8,14,72.8,14L1429.1,1431.6z" transform="matrix(1, 0, 0, 1, -1245.45751953125, -1169.3817176818848)"/><path d="M 1378.099976 1176.800049 H 1394.499975 V 1270.000046 H 1378.099976 V 1176.800049 Z" transform="matrix(1, 0, 0, 1, -1245.45751953125, -1169.3817176818848)"/><path d="M 1351.599976 1203.300049 H 1420.899979 V 1219.700048 H 1351.599976 V 1203.300049 Z" transform="matrix(1, 0, 0, 1, -1245.45751953125, -1169.3817176818848)"/><path d="M 1408.900049 1285.099976 A 22.6 22.6 0 0 1 1386.300049 1307.699976 A 22.6 22.6 0 0 1 1363.700048 1285.099976 A 22.6 22.6 0 0 1 1386.300049 1262.499975 A 22.6 22.6 0 0 1 1408.900049 1285.099976 Z" transform="matrix(1, 0, 0, 1, -1245.45751953125, -1169.3817176818848)"/>

</svg>