<?xml version="1.0" encoding="utf-8"?>
<svg id="master-artboard" viewBox="0 0 253 357.9188537597656" version="1.1" xmlns="http://www.w3.org/2000/svg" x="0px" y="0px" style="enable-background:new 0 0 649 485;" width="253px" height="357.9188537597656px"><rect id="ee-background" x="0" y="0" width="253" height="357.9188537597656" style="fill: white; fill-opacity: 0; pointer-events: none;" transform="matrix(1, 0, 0, 1, 0, -4)"/>

<g transform="matrix(1, 0, 0, 1, -197.6442108154297, -30.77450180053711)">
		<linearGradient id="SVGID_1_" gradientUnits="userSpaceOnUse" x1="-5.000000e-04" y1="242.5173" x2="648.9882" y2="242.5173">
			<stop offset="0" style="stop-color:#008DD0"/>
			<stop offset="1" style="stop-color:#FFFFFF"/>
		</linearGradient>
		<path d="M 0 0 H 649 V 485 H 0 V 0 Z" class="st0" style="opacity: 0.5; fill: url('#SVGID_1_');"/>
		
			<radialGradient id="SVGID_2_" cx="329.2909" cy="238.365" r="290.9253" gradientTransform="matrix(0.9856 0 0 0.9829 -5.530301e-02 8.2284)" gradientUnits="userSpaceOnUse">
			<stop offset="0" style="stop-color:#FFFFFF"/>
			<stop offset="0.5108" style="stop-color:#FFFFFF"/>
			<stop offset="0.5989" style="stop-color:#FFFFFF"/>
			<stop offset="0.8462" style="stop-color:#008DD0"/>
		</radialGradient>
		<path d="M 0 0 H 649 V 485 H 0 V 0 Z" class="st1" style="opacity: 0.4; fill: url('#SVGID_2_');"/>
	</g>

<path class="st3" d="M324.5,72.4c-93.9,0-170.1,76.1-170.1,170.1c0,93.9,76.1,170.1,170.1,170.1c93.9,0,170.1-76.2,170.1-170.1&#10;&#9;&#9;C494.6,148.6,418.4,72.4,324.5,72.4z M372,376h-95.8c-2.5,0-4.6-2.1-4.6-4.6c0-2.6,2.1-4.6,4.6-4.6h1.5c3.1-1.8,7.2-3.3,9.1-3.8&#10;&#9;&#9;c-5.7-3.4-9.2-8.1-9.2-13.4c0-5.1,3.4-9.8,8.8-13.2c6.8-6.5,7.4-13.2,7.4-15.3c-1.4-0.6-2.4-2-2.4-3.7c0-2.2,1.6-4.1,3.6-4.1h1.9&#10;&#9;&#9;c20.2-59.3,6-101,6-101l0.4-0.4h-8.3c-2,0-3.6-1.7-3.6-3.7c0-2.1,1.6-3.7,3.6-3.7h1.4c0.2-1,0.3-2,0.4-2.7c-1.7-0.3-3-1.8-3-3.6&#10;&#9;&#9;c0-1.5,0.8-2.7,2-3.3h-0.1c0,0,2.9-1.5,3-6.2c-1.7-0.1-3-0.9-3-1.9c0-0.8,0.7-1.4,1.7-1.7c3.2-18.4-9-36.2-9-36.2&#10;&#9;&#9;c8-5,18.2-6.8,25.6-7.4c-0.4-0.6-0.7-1.2-0.7-2c0-1.8,1.5-3.3,3.3-3.3h1.4v-4.5h-3.4l4.8-8.3l3.4-5.8h-6.7v1.7h-5.4v-8.8h5.4v1.8&#10;&#9;&#9;h5.7l-2.4-4.1l-4.8-8.3h19.1l-4.8,8.3l-2.4,4.1h5.1v-1.8h5.3v8.8h-5.3v-1.7h-6l3.3,5.8l4.8,8.3h-3.9v4.5h2.4c1.8,0,3.3,1.4,3.3,3.3&#10;&#9;&#9;c0,0.8-0.3,1.5-0.8,2.1c7.3,0.7,17,2.5,24.6,7.3c0,0-12.2,17.7-9,36.2c1,0.4,1.7,1,1.7,1.7c0,1-1.3,1.8-3.1,1.9&#10;&#9;&#9;c0.2,4.7,3.1,6.2,3.1,6.2h0c1.1,0.6,2,1.8,2,3.3c0,1.8-1.3,3.3-3.1,3.6c0.1,0.7,0.2,1.7,0.4,2.7h1.4c1.9,0,3.5,1.6,3.5,3.7&#10;&#9;&#9;c0,2-1.6,3.7-3.5,3.7h-8.3l0.4,0.4c0,0-14.1,41.7,6.1,101h1.9c1.9,0,3.5,1.8,3.5,4.1c0,1.7-0.9,3.1-2.3,3.7c0,2.1,0.7,8.8,7.3,15.3&#10;&#9;&#9;c5.5,3.4,8.8,8,8.8,13.2c0,5.3-3.6,10-9.2,13.4c1.9,0.6,5.9,2.1,9.1,3.8h2.4c2.6,0,4.6,2,4.6,4.6C376.7,374,374.6,376,372,376z&#10;&#9;&#9; M323.6,144.7l0.1-1.8h-0.1V144.7z" style="fill: rgb(21, 15, 15);" transform="matrix(1, 0, 0, 1, -197.6442108154297, -30.77450180053711)"/>
<g transform="matrix(2.6609549522399902, 0, 0, 2.6609549522399902, -367.83067321777344, -160.41690063476562)"><g id="g-1" transform="matrix(1, 0, 0, 1, 0, 0)">
	<g id="g-2">
		<path class="st0" d="M58,49h100v100H58V49z" style="fill: rgb(21, 15, 15);"/>
	</g>
</g></g><g transform="matrix(2.469212770462036, 0, 0, 2.469212770462036, -345.6955108642578, 105.47564697265625)"><g id="g-3" transform="matrix(1, 0, 0, 1, 0, 0)">
	<g id="g-4">
		<path class="st0" d="M58,49h100v100H58V49z" style="fill: rgb(21, 15, 15);"/>
	</g>
</g></g><g transform="matrix(1.0776543617248535, 0, 0, 1.0776543617248535, -17.226806640625, -96.78813934326172)"><g id="g-9" transform="matrix(1, 0, 0, 1, 0, 0)">
	<g id="g-10">
		<path class="st0" d="M58,49h100v100H58V49z" style="fill: rgb(21, 15, 15);"/>
	</g>
</g></g><g transform="matrix(1.0449433326721191, 0, 0, 1.0449433326721191, 84.18344116210938, -81.84852600097656)"><g id="g-11" transform="matrix(1, 0, 0, 1, 0, 0)">
	<g id="g-12">
		<path class="st0" d="M58,49h100v100H58V49z" style="fill: rgb(21, 15, 15);"/>
	</g>
</g></g><g transform="matrix(2.6629209518432617, 0, 0, 2.6629209518432617, 45.88389587402344, -160.1902313232422)"><g id="g-13" transform="matrix(1, 0, 0, 1, 0, 0)">
	<g id="g-14">
		<path class="st0" d="M58,49h100v100H58V49z" style="fill: rgb(21, 15, 15);"/>
	</g>
</g></g><g transform="matrix(2.620786190032959, 0, 0, 2.620786190032959, 41.58613586425781, 88.78447723388672)"><g id="g-15" transform="matrix(1, 0, 0, 1, 0, 0)">
	<g id="g-16">
		<path class="st0" d="M58,49h100v100H58V49z" style="fill: rgb(21, 15, 15);"/>
	</g>
</g></g></svg>