<?xml version="1.0" encoding="utf-8"?>
<svg id="master-artboard" viewBox="0 0 284.16949462890625 716.9948120117188" version="1.1" xmlns="http://www.w3.org/2000/svg" x="0px" y="0px" style="enable-background:new 0 0 2400 2400;" width="284.16949462890625px" height="716.9948120117188px"><rect id="ee-background" x="0" y="0" width="284.16949462890625" height="716.9948120117188" style="fill: white; fill-opacity: 0; pointer-events: none;"/>


<path class="st2" d="M1443.8,618.3c7.3,0,13.2-5.9,13.2-13.2s-5.9-13.2-13.2-13.2h-115.1c-7.3,0-13.2,5.9-13.2,13.2&#10;&#9;&#9;&#9;s5.9,13.2,13.2,13.2H1443.8z" style="fill: rgb(230, 231, 232);" transform="matrix(1, 0, 0, 1, -1244.28857421875, -292.00439453125)"/><path class="st1" d="M1514.5,980.4H1258c-3.1,0-5.6,2.5-5.6,5.6v12.1c0,3.1,2.5,5.6,5.6,5.6h256.5c3.1,0,5.6-2.5,5.6-5.6V986&#10;&#9;&#9;&#9;C1520.2,982.9,1517.6,980.4,1514.5,980.4z" style="fill: rgb(209, 211, 212);" transform="matrix(1, 0, 0, 1, -1244.28857421875, -292.00439453125)"/><path class="st1" d="M1509.5,898.2H1263c-3.1,0-5.6,2.5-5.6,5.6v52.1c0,3.1,2.5,5.6,5.6,5.6h246.5c3.1,0,5.6-2.5,5.6-5.6v-52.1&#10;&#9;&#9;&#9;C1515.2,900.7,1512.6,898.2,1509.5,898.2z" style="fill: rgb(209, 211, 212);" transform="matrix(1, 0, 0, 1, -1244.28857421875, -292.00439453125)"/><path d="M 1336.9000244140625 618.2999877929688 L 1312.699951171875 860.2000122070312 L 1459.800048828125 860.2000122070312 L 1435.5999755859375 618.2999877929688 Z" class="st1" style="fill: rgb(209, 211, 212);" transform="matrix(1, 0, 0, 1, -1244.28857421875, -292.00439453125)"/><path class="st2" d="M1469.5,860.2H1303c-21.2,0-38.4,16.9-39,38h244.5C1508,877.1,1490.7,860.2,1469.5,860.2z" style="fill: rgb(230, 231, 232);" transform="matrix(1, 0, 0, 1, -1244.28857421875, -292.00439453125)"/><path d="M 1264 961.599976 H 1508.5 V 980.399975 H 1264 V 961.599976 Z" class="st2" style="fill: rgb(230, 231, 232);" transform="matrix(1, 0, 0, 1, -1244.28857421875, -292.00439453125)"/><path class="st1" d="M1333.5,575c-4.6,0-8.4,3.8-8.4,8.4c0,4.6,3.8,8.4,8.4,8.4h105.6c4.6,0,8.4-3.8,8.4-8.4&#10;&#9;&#9;&#9;c0-4.6-3.8-8.4-8.4-8.4H1333.5z" style="fill: rgb(209, 211, 212);" transform="matrix(1, 0, 0, 1, -1244.28857421875, -292.00439453125)"/><path d="M 1343.5 554.700012 H 1429.099998 V 575.000011 H 1343.5 V 554.700012 Z" class="st2" style="fill: rgb(230, 231, 232);" transform="matrix(1, 0, 0, 1, -1244.28857421875, -292.00439453125)"/><path class="st1" d="M1429.1,554.7h-85.6l-30-132c0,0,34.7-14,72.8-14s72.8,14,72.8,14L1429.1,554.7z" style="fill: rgb(209, 211, 212);" transform="matrix(1, 0, 0, 1, -1244.28857421875, -292.00439453125)"/><path d="M 1378.099976 299.899994 H 1394.499975 V 393.099991 H 1378.099976 V 299.899994 Z" class="st1" style="fill: rgb(209, 211, 212);" transform="matrix(1, 0, 0, 1, -1244.28857421875, -292.00439453125)"/><path d="M 1351.599976 326.299988 H 1420.899979 V 342.699987 H 1351.599976 V 326.299988 Z" class="st1" style="fill: rgb(209, 211, 212);" transform="matrix(1, 0, 0, 1, -1244.28857421875, -292.00439453125)"/><path d="M 1408.900049 408.200012 A 22.6 22.6 0 0 1 1386.300049 430.800013 A 22.6 22.6 0 0 1 1363.700048 408.200012 A 22.6 22.6 0 0 1 1386.300049 385.600012 A 22.6 22.6 0 0 1 1408.900049 408.200012 Z" class="st1" style="fill: rgb(209, 211, 212);" transform="matrix(1, 0, 0, 1, -1244.28857421875, -292.00439453125)"/>
</svg>